<svg width="33" height="32" viewBox="0 0 33 32" fill="none" xmlns="http://www.w3.org/2000/svg">
<path d="M16.5001 30.2248C16.3039 30.2248 16.1191 30.185 15.946 30.1054L4.7012 25.0925C4.29713 24.9134 4.05469 24.5653 4.05469 24.1774V18.6372C4.05469 18.2493 4.29713 17.9012 4.7012 17.7222L8.55721 16.0014L4.7012 14.2807C4.29713 14.1017 4.05469 13.7535 4.05469 13.3656V7.82549C4.05469 7.43758 4.29713 7.08946 4.7012 6.91042L15.946 1.89743C16.1191 1.81786 16.3039 1.77808 16.5001 1.77808C16.6964 1.77808 16.8811 1.81786 17.0543 1.89743L28.2991 6.91042C28.7031 7.08946 28.9456 7.43758 28.9456 7.82549V13.3656C28.9456 13.7535 28.7031 14.1017 28.2991 14.2807L24.443 16.0014L28.2991 17.7222C28.7031 17.9012 28.9456 18.2493 28.9456 18.6372V24.1774C28.9456 24.5653 28.7031 24.9134 28.2991 25.0925L17.0543 30.1054C16.8811 30.185 16.6964 30.2248 16.5001 30.2248ZM16.5001 28.0366L26.5442 23.5508V20.3281L17.0427 24.5653C16.8811 24.6449 16.6849 24.6847 16.4886 24.6847C16.2923 24.6847 16.1076 24.6449 15.9344 24.5653L6.43294 20.3281V23.5508L16.4886 28.0366H16.5001ZM16.5001 22.4964L25.1473 18.6372L21.8339 17.1652L17.0543 19.2937C16.8811 19.3733 16.6964 19.4131 16.5001 19.4131C16.3039 19.4131 16.1191 19.3733 15.946 19.2937L11.1664 17.1652L7.85297 18.6372L16.5001 22.4964ZM16.5001 17.2149L26.5442 12.739V9.51638L17.0427 13.7536C16.8696 13.8331 16.6849 13.8729 16.4886 13.8729C16.2923 13.8729 16.1076 13.8331 15.9344 13.7536L6.44449 9.51638V12.739L16.5001 17.2149ZM16.5001 11.6748L25.1357 7.81555L16.5001 3.95634L7.85297 7.81555L16.5001 11.6748Z" fill="#101010"/>
</svg>